<svg width="136" height="22" fill="none" xmlns="http://www.w3.org/2000/svg"><path d="M108.533 20.766h-2.644c0 .157.051.315.051.472h3.102V1.888h-.458v18.878h-.051Zm6.052-12.586v12.586h-2.746v.472h3.204V8.863c-.153-.21-.305-.472-.458-.682Zm9.613 12.586h-2.645c0 .157.051.315.051.472h3.102V1.888h-.457v18.878h-.051ZM52.588 5.191h1.628c.305 0 .56 0 .813.053-.305-.315-.915-.525-2.034-.525h-.915v4.3l.457-.157v-3.67h.051Zm7.68.787c0 2.413-.864 4.143-2.746 5.507l.254.524c1.73-1.206 2.9-2.832 2.9-5.087 0-.944-.204-1.73-.56-2.464.102.524.152.996.152 1.52Zm-7.12 7.656c-.305.105-.661.263-1.068.367v6.765h-2.95v.472h3.407v-6.817c.255-.105.56-.157.814-.262l-.203-.525ZM8.24 4.668c-.357-.21-.713-.263-1.069-.263-2.441 0-2.95 3.252-2.95 5.926 0 1.678.204 3.513.916 4.72-.305-1.05-.407-2.36-.407-3.671 0-3.514.814-6.608 3.51-6.712Zm18.156.209H24.87v.472h1.526v-.472Zm8.442 0h-3.56v15.889h-2.9v.472h3.409V5.349h3.051v-.472ZM15.105 10.33c0 6.66-3.051 10.803-7.934 10.803-.254 0-.56 0-.814-.052.61.21 1.323.314 2.035.314 4.679 0 7.222-4.09 7.222-10.015 0-2.413-.407-4.51-1.22-6.136.457 1.469.711 3.147.711 5.087ZM25.48 20.766h-7.934v.472h8.392v-3.461h-.458v2.989Zm53.758-3.199.407-1.573-.56-14.106h-.508l.661 15.68ZM20.954 1.888h-.458v13.896h.458V1.888Zm109.448 0v18.878h-2.899v.472h3.408V1.888h-.509ZM65.811 9.911l-.457 10.855h-7.731l.204.472h8.035l.407-9.858a50.003 50.003 0 0 0-.458-1.469Zm8.443 0c-.813 2.57-1.526 5.087-1.83 6.607l-.102.577h-2.798c.051.158.051.315.102.472h3.204a74.616 74.616 0 0 1 1.577-5.768l-.153-1.888Zm12.715-1.363-.305-1.154-.967 3.88h.56l.712-2.726Zm7.273 9.544v-1.678L90.377 1.94h-.458l4.323 16.15ZM88.75 15.89h-4.171l-1.221 4.876h-6.764v.472h7.17l1.222-4.877h3.916l-.153-.472Z" fill="#5A1404"/><path d="M98.92 8.18v12.586h-7.272l.102.472h7.629V8.863c-.153-.21-.306-.472-.458-.682Zm-59.147 7.604h.457V13.11h5.798V9.65h-.458v2.988h-5.797v3.146ZM46.638 1.94v2.937h-6.865v2.78h.457V5.348h6.866V1.941h-.458Zm0 18.826h-9.816v.472h10.274v-3.409h-.458v2.937Z" fill="#5A1404"/><path d="M104.566 10.015C101.922 5.244 99.938 2.78 97.955.63h-3v19.35h3.203V5.925c2.187 2.727 6.103 9.23 6.561 14.106h3.102V.681h-3.204v9.334h-.051Zm15.665 0c-2.645-4.771-4.628-7.236-6.612-9.386h-3v19.35h3.204V5.925c2.187 2.727 6.103 9.23 6.561 14.106h3.102V.681h-3.204v9.334h-.051ZM59.505 5.978c0-3.093-2.136-5.296-6.205-5.296h-5.34v19.35h3.407v-6.607a34.798 34.798 0 0 0 2.188-.787l3 7.341h3.967l-3.967-8.757c1.984-1.258 2.95-2.779 2.95-5.244Zm-8.138-2.045h1.628c2.034 0 3.102.787 3.102 2.203 0 2.412-2.695 3.303-4.73 3.933V3.933ZM7.171.315C2.543.315 0 4.458 0 10.331c0 5.925 2.543 10.015 7.171 10.015 4.68 0 7.222-4.09 7.222-10.015C14.393 4.458 11.85.315 7.171.315Zm0 16.728c-2.797 0-3.662-3.146-3.662-6.712s.865-6.712 3.662-6.712c2.797 0 3.713 3.146 3.713 6.712s-.916 6.712-3.713 6.712ZM19.734.682h-3.408v19.35h8.392V16.57h-4.984V.682Zm109.957 0h-3.408v19.35h3.408V.682ZM23.65.682v3.461h3.509v15.889h3.407V4.143h3.459V.683H23.649Zm50.045 0c-1.271 3.199-2.39 6.03-3.713 11.17C68.66 6.66 67.592 3.88 66.27.682H62.2l-.814 19.35h3.204l.61-14.001c1.323 3.513 2.645 8.023 3.103 10.383h3.306c.458-2.308 1.78-6.817 3.102-10.383l.61 14h3.205L77.713.683h-4.018Zm10.273 14.473h5.34l1.221 4.877h3.408L88.85.682h-4.323l-5.137 19.35h3.41l1.17-4.877Zm2.696-10.802 1.933 7.708h-3.815l1.882-7.708ZM35.602.682v19.35h10.273V16.57H39.01v-4.72h5.798V8.444H39.01v-4.3h6.866V.683H35.602Zm98.971 17.462c-.814 0-1.475.682-1.475 1.468 0 .84.661 1.469 1.475 1.469.814 0 1.424-.682 1.424-1.521.051-.734-.61-1.416-1.424-1.416Zm0 2.727c-.661 0-1.17-.524-1.17-1.259 0-.681.509-1.206 1.17-1.206.661 0 1.17.525 1.17 1.206 0 .735-.509 1.259-1.17 1.259Z" fill="#5A1404"/><path d="M135.286 19.245c0-.367-.204-.524-.611-.524h-.661v1.783h.305v-.734h.255l.457.734h.305l-.457-.734c.254-.053.407-.21.407-.525Zm-.967-.21h.305c.255 0 .356.053.356.263 0 .262-.152.262-.406.262h-.255v-.524Z" fill="#5A1404"/></svg>